<svg xmlns="http://www.w3.org/2000/svg" width="512" height="512" viewBox="0 0 512 512"><style>.a{fill:none;}.b{fill:#31456a;}</style><g data-name="Groupe 13"><rect data-name="Rectangle 35" width="512" height="512" class="a"/><g data-name="Tracé 18" class="a"><path d="M192 94c18.1 0 128 187.3 128 258A128 128 0 0 1 0 128C64 281.3 173.9 94 192 94Z"/><path d="M192 113.8C163.4 145.8 80 293.4 80 352 80 413.8 130.2 464 192 464 253.8 464 304 413.8 304 352 304 293.4 220.6 145.8 192 113.8M192 94C210.1 94 320 281.3 320 352 320 422.7 262.7 480 192 480 121.3 480 64 422.7 64 352 64 281.3 173.9 94 192 94Z" class="b"/></g><g data-name="Tracé 19" class="a"><path d="M384 32c10.2 0 64 88.7 64 124A64 64 0 0 1 0 64C320 120.7 373.8 32 384 32Z"/><path d="M384 53.8C367.7 75.3 336 132.1 336 156 336 182.5 357.5 204 384 204 410.5 204 432 182.5 432 156 432 132.1 400.3 75.3 384 53.8M384 32C394.2 32 448 120.7 448 156 448 191.3 419.3 220 384 220 348.7 220 320 191.3 320 156 320 120.7 373.8 32 384 32Z" class="b"/></g></g></svg>
